<svg width="22" height="22" viewBox="0 0 22 22" fill="none" xmlns="http://www.w3.org/2000/svg">
<circle cx="11" cy="11" r="10" fill="white" stroke="#D7D7D7" stroke-width="2"/>
<path d="M13.5767 12.3446L12.0308 10.7986L13.5767 9.25273C13.8613 8.96815 13.8613 8.5067 13.5767 8.22212C13.2921 7.93754 12.8307 7.93754 12.5461 8.22212L11.0002 9.76803L9.45427 8.22212C9.16969 7.93754 8.70824 7.93754 8.42366 8.22212C8.13909 8.5067 8.13909 8.96815 8.42366 9.25273L9.96957 10.7986L8.42366 12.3446C8.13909 12.6291 8.13909 13.0906 8.42366 13.3752C8.70824 13.6597 9.16969 13.6597 9.45427 13.3752L11.0002 11.8292L12.5461 13.3752C12.8307 13.6597 13.2921 13.6597 13.5767 13.3752C13.8613 13.0906 13.8613 12.6291 13.5767 12.3446Z" fill="#D0D0D0"/>
</svg>
